<svg xmlns="http://www.w3.org/2000/svg" width="1000" height="700" viewBox="0 0 1000 700">
<rect width="100%" height="100%" fill="#ffffff"/>
<style> .label{font-family: Arial, Helvetica, sans-serif; font-size:18px; fill:#111827;} </style>
<rect x="40" y="40" width="440" height="290" fill="#f9fafb" stroke="#e5e7eb" stroke-width="2" rx="16"/>
<circle cx="260" cy="185" r="25" fill="none" stroke="#1f2937" stroke-width="2"/>
<circle cx="260" cy="185" r="50" fill="none" stroke="#1f2937" stroke-width="2"/>
<circle cx="260" cy="185" r="76" fill="none" stroke="#1f2937" stroke-width="2"/>
<circle cx="260" cy="185" r="101" fill="none" stroke="#1f2937" stroke-width="2"/>
<line x1="159" y1="185" x2="361" y2="185" stroke="#1f2937" stroke-width="1" stroke-dasharray="4,4"/>
<line x1="260" y1="84" x2="260" y2="286" stroke="#1f2937" stroke-width="1" stroke-dasharray="4,4"/>
<circle cx="262.09" cy="186.25" r="3" fill="#dc2626" opacity="0.85"/>
<circle cx="257.02" cy="185.61" r="3" fill="#dc2626" opacity="0.85"/>
<circle cx="262.15" cy="182.04" r="3" fill="#dc2626" opacity="0.85"/>
<circle cx="260.48" cy="189.24" r="3" fill="#dc2626" opacity="0.85"/>
<circle cx="256.32" cy="181.8" r="3" fill="#dc2626" opacity="0.85"/>
<circle cx="265.48" cy="184.86" r="3" fill="#dc2626" opacity="0.85"/>
<circle cx="255.62" cy="189.23" r="3" fill="#dc2626" opacity="0.85"/>
<circle cx="260.42" cy="178.31" r="3" fill="#dc2626" opacity="0.85"/>
<circle cx="264.59" cy="190.68" r="3" fill="#dc2626" opacity="0.85"/>
<circle cx="252.17" cy="183.82" r="3" fill="#dc2626" opacity="0.85"/>
<circle cx="267.08" cy="180.24" r="3" fill="#dc2626" opacity="0.85"/>
<circle cx="257.85" cy="193.88" r="3" fill="#dc2626" opacity="0.85"/>
<circle cx="255.29" cy="176.47" r="3" fill="#dc2626" opacity="0.85"/>
<circle cx="269.81" cy="188.3" r="3" fill="#dc2626" opacity="0.85"/>
<circle cx="249.98" cy="189.44" r="3" fill="#dc2626" opacity="0.85"/>
<circle cx="264.64" cy="174.4" r="3" fill="#dc2626" opacity="0.85"/>
<circle cx="263.94" cy="196.53" r="3" fill="#dc2626" opacity="0.85"/>
<circle cx="257.86" cy="183.83" r="3" fill="#dc2626" opacity="0.85"/>
<circle cx="262.96" cy="184.27" r="3" fill="#dc2626" opacity="0.85"/>
<circle cx="257.98" cy="188.04" r="3" fill="#dc2626" opacity="0.85"/>
<circle cx="259.34" cy="180.79" r="3" fill="#dc2626" opacity="0.85"/>
<circle cx="263.8" cy="188.04" r="3" fill="#dc2626" opacity="0.85"/>
<circle cx="254.53" cy="185.37" r="3" fill="#dc2626" opacity="0.85"/>
<circle cx="264.21" cy="180.6" r="3" fill="#dc2626" opacity="0.85"/>
<circle cx="259.86" cy="191.7" r="3" fill="#dc2626" opacity="0.85"/>
<circle cx="255.18" cy="179.51" r="3" fill="#dc2626" opacity="0.85"/>
<circle cx="267.87" cy="185.86" r="3" fill="#dc2626" opacity="0.85"/>
<circle cx="253.13" cy="190.05" r="3" fill="#dc2626" opacity="0.85"/>
<circle cx="261.78" cy="176.04" r="3" fill="#dc2626" opacity="0.85"/>
<circle cx="265.06" cy="193.33" r="3" fill="#dc2626" opacity="0.85"/>
<circle cx="250.06" cy="182.1" r="3" fill="#dc2626" opacity="0.85"/>
<circle cx="269.83" cy="180.15" r="3" fill="#dc2626" opacity="0.85"/>
<circle cx="255.81" cy="195.78" r="3" fill="#dc2626" opacity="0.85"/>
<circle cx="255.59" cy="173.65" r="3" fill="#dc2626" opacity="0.85"/>
<circle cx="262.18" cy="186.08" r="3" fill="#dc2626" opacity="0.85"/>
<circle cx="257.08" cy="185.85" r="3" fill="#dc2626" opacity="0.85"/>
<circle cx="261.9" cy="181.88" r="3" fill="#dc2626" opacity="0.85"/>
<circle cx="260.83" cy="189.18" r="3" fill="#dc2626" opacity="0.85"/>
<circle cx="256.07" cy="182.12" r="3" fill="#dc2626" opacity="0.85"/>
<circle cx="265.45" cy="184.41" r="3" fill="#dc2626" opacity="0.85"/>
<circle cx="255.98" cy="189.57" r="3" fill="#dc2626" opacity="0.85"/>
<circle cx="259.86" cy="178.3" r="3" fill="#dc2626" opacity="0.85"/>
<circle cx="265.05" cy="190.29" r="3" fill="#dc2626" opacity="0.85"/>
<circle cx="252.1" cy="184.47" r="3" fill="#dc2626" opacity="0.85"/>
<circle cx="266.66" cy="179.68" r="3" fill="#dc2626" opacity="0.85"/>
<circle cx="258.59" cy="194.03" r="3" fill="#dc2626" opacity="0.85"/>
<circle cx="254.6" cy="176.89" r="3" fill="#dc2626" opacity="0.85"/>
<circle cx="270.05" cy="187.48" r="3" fill="#dc2626" opacity="0.85"/>
<circle cx="250.38" cy="190.25" r="3" fill="#dc2626" opacity="0.85"/>
<circle cx="263.75" cy="174.05" r="3" fill="#dc2626" opacity="0.85"/>
<text class="label" x="260" y="318" text-anchor="middle">① Low Variability · Low Bias</text>
<rect x="520" y="40" width="440" height="290" fill="#f9fafb" stroke="#e5e7eb" stroke-width="2" rx="16"/>
<circle cx="740" cy="185" r="25" fill="none" stroke="#1f2937" stroke-width="2"/>
<circle cx="740" cy="185" r="50" fill="none" stroke="#1f2937" stroke-width="2"/>
<circle cx="740" cy="185" r="76" fill="none" stroke="#1f2937" stroke-width="2"/>
<circle cx="740" cy="185" r="101" fill="none" stroke="#1f2937" stroke-width="2"/>
<line x1="639" y1="185" x2="841" y2="185" stroke="#1f2937" stroke-width="1" stroke-dasharray="4,4"/>
<line x1="740" y1="84" x2="740" y2="286" stroke="#1f2937" stroke-width="1" stroke-dasharray="4,4"/>
<circle cx="791.89" cy="177.0" r="3" fill="#dc2626" opacity="0.85"/>
<circle cx="787.88" cy="173.83" r="3" fill="#dc2626" opacity="0.85"/>
<circle cx="794.11" cy="173.42" r="3" fill="#dc2626" opacity="0.85"/>
<circle cx="788.98" cy="178.73" r="3" fill="#dc2626" opacity="0.85"/>
<circle cx="789.25" cy="170.22" r="3" fill="#dc2626" opacity="0.85"/>
<circle cx="795.52" cy="177.55" r="3" fill="#dc2626" opacity="0.85"/>
<circle cx="784.81" cy="176.21" r="3" fill="#dc2626" opacity="0.85"/>
<circle cx="794.55" cy="169.33" r="3" fill="#dc2626" opacity="0.85"/>
<circle cx="791.76" cy="182.09" r="3" fill="#dc2626" opacity="0.85"/>
<circle cx="784.65" cy="169.81" r="3" fill="#dc2626" opacity="0.85"/>
<circle cx="799.26" cy="174.42" r="3" fill="#dc2626" opacity="0.85"/>
<circle cx="784.34" cy="181.36" r="3" fill="#dc2626" opacity="0.85"/>
<circle cx="791.11" cy="165.11" r="3" fill="#dc2626" opacity="0.85"/>
<circle cx="797.46" cy="182.73" r="3" fill="#dc2626" opacity="0.85"/>
<circle cx="779.87" cy="173.49" r="3" fill="#dc2626" opacity="0.85"/>
<circle cx="800.18" cy="168.15" r="3" fill="#dc2626" opacity="0.85"/>
<circle cx="788.19" cy="186.76" r="3" fill="#dc2626" opacity="0.85"/>
<circle cx="789.52" cy="172.75" r="3" fill="#dc2626" opacity="0.85"/>
<circle cx="793.66" cy="175.75" r="3" fill="#dc2626" opacity="0.85"/>
<circle cx="787.45" cy="176.41" r="3" fill="#dc2626" opacity="0.85"/>
<circle cx="792.36" cy="170.9" r="3" fill="#dc2626" opacity="0.85"/>
<circle cx="792.44" cy="179.42" r="3" fill="#dc2626" opacity="0.85"/>
<circle cx="785.87" cy="172.35" r="3" fill="#dc2626" opacity="0.85"/>
<circle cx="796.62" cy="173.24" r="3" fill="#dc2626" opacity="0.85"/>
<circle cx="787.18" cy="180.52" r="3" fill="#dc2626" opacity="0.85"/>
<circle cx="789.44" cy="167.66" r="3" fill="#dc2626" opacity="0.85"/>
<circle cx="797.06" cy="179.64" r="3" fill="#dc2626" opacity="0.85"/>
<circle cx="782.26" cy="175.64" r="3" fill="#dc2626" opacity="0.85"/>
<circle cx="796.89" cy="168.09" r="3" fill="#dc2626" opacity="0.85"/>
<circle cx="790.8" cy="184.59" r="3" fill="#dc2626" opacity="0.85"/>
<circle cx="783.72" cy="167.25" r="3" fill="#dc2626" opacity="0.85"/>
<circle cx="801.67" cy="175.76" r="3" fill="#dc2626" opacity="0.85"/>
<circle cx="781.6" cy="181.93" r="3" fill="#dc2626" opacity="0.85"/>
<circle cx="792.82" cy="162.85" r="3" fill="#dc2626" opacity="0.85"/>
<circle cx="792.07" cy="176.9" r="3" fill="#dc2626" opacity="0.85"/>
<circle cx="787.81" cy="174.07" r="3" fill="#dc2626" opacity="0.85"/>
<circle cx="793.98" cy="173.15" r="3" fill="#dc2626" opacity="0.85"/>
<circle cx="789.31" cy="178.86" r="3" fill="#dc2626" opacity="0.85"/>
<circle cx="788.87" cy="170.36" r="3" fill="#dc2626" opacity="0.85"/>
<circle cx="795.73" cy="177.15" r="3" fill="#dc2626" opacity="0.85"/>
<circle cx="784.95" cy="176.7" r="3" fill="#dc2626" opacity="0.85"/>
<circle cx="794.08" cy="169.04" r="3" fill="#dc2626" opacity="0.85"/>
<circle cx="792.35" cy="181.98" r="3" fill="#dc2626" opacity="0.85"/>
<circle cx="784.25" cy="170.33" r="3" fill="#dc2626" opacity="0.85"/>
<circle cx="799.2" cy="173.72" r="3" fill="#dc2626" opacity="0.85"/>
<circle cx="784.9" cy="181.86" r="3" fill="#dc2626" opacity="0.85"/>
<circle cx="790.3" cy="165.12" r="3" fill="#dc2626" opacity="0.85"/>
<circle cx="798.09" cy="182.15" r="3" fill="#dc2626" opacity="0.85"/>
<circle cx="779.8" cy="174.39" r="3" fill="#dc2626" opacity="0.85"/>
<circle cx="799.6" cy="167.4" r="3" fill="#dc2626" opacity="0.85"/>
<text class="label" x="740" y="318" text-anchor="middle">② Low Variability · High Bias</text>
<rect x="40" y="370" width="440" height="290" fill="#f9fafb" stroke="#e5e7eb" stroke-width="2" rx="16"/>
<circle cx="260" cy="515" r="25" fill="none" stroke="#1f2937" stroke-width="2"/>
<circle cx="260" cy="515" r="50" fill="none" stroke="#1f2937" stroke-width="2"/>
<circle cx="260" cy="515" r="76" fill="none" stroke="#1f2937" stroke-width="2"/>
<circle cx="260" cy="515" r="101" fill="none" stroke="#1f2937" stroke-width="2"/>
<line x1="159" y1="515" x2="361" y2="515" stroke="#1f2937" stroke-width="1" stroke-dasharray="4,4"/>
<line x1="260" y1="414" x2="260" y2="616" stroke="#1f2937" stroke-width="1" stroke-dasharray="4,4"/>
<circle cx="259.52" cy="524.12" r="3" fill="#dc2626" opacity="0.85"/>
<circle cx="252.74" cy="506.19" r="3" fill="#dc2626" opacity="0.85"/>
<circle cx="273.57" cy="516.91" r="3" fill="#dc2626" opacity="0.85"/>
<circle cx="246.82" cy="524.05" r="3" fill="#dc2626" opacity="0.85"/>
<circle cx="264.12" cy="497.2" r="3" fill="#dc2626" opacity="0.85"/>
<circle cx="270.11" cy="532.9" r="3" fill="#dc2626" opacity="0.85"/>
<circle cx="238.29" cy="507.92" r="3" fill="#dc2626" opacity="0.85"/>
<circle cx="282.87" cy="504.6" r="3" fill="#dc2626" opacity="0.85"/>
<circle cx="249.26" cy="540.21" r="3" fill="#dc2626" opacity="0.85"/>
<circle cx="250.12" cy="487.0" r="3" fill="#dc2626" opacity="0.85"/>
<circle cx="288.21" cy="530.05" r="3" fill="#dc2626" opacity="0.85"/>
<circle cx="226.82" cy="523.53" r="3" fill="#dc2626" opacity="0.85"/>
<circle cx="279.95" cy="484.39" r="3" fill="#dc2626" opacity="0.85"/>
<circle cx="266.34" cy="553.3" r="3" fill="#dc2626" opacity="0.85"/>
<circle cx="227.66" cy="489.63" r="3" fill="#dc2626" opacity="0.85"/>
<circle cx="303.26" cy="511.69" r="3" fill="#dc2626" opacity="0.85"/>
<circle cx="228.78" cy="548.33" r="3" fill="#dc2626" opacity="0.85"/>
<circle cx="260.1" cy="505.87" r="3" fill="#dc2626" opacity="0.85"/>
<circle cx="267.62" cy="523.5" r="3" fill="#dc2626" opacity="0.85"/>
<circle cx="246.36" cy="513.65" r="3" fill="#dc2626" opacity="0.85"/>
<circle cx="272.79" cy="505.41" r="3" fill="#dc2626" opacity="0.85"/>
<circle cx="256.62" cy="532.95" r="3" fill="#dc2626" opacity="0.85"/>
<circle cx="249.16" cy="497.54" r="3" fill="#dc2626" opacity="0.85"/>
<circle cx="281.99" cy="521.17" r="3" fill="#dc2626" opacity="0.85"/>
<circle cx="237.58" cy="526.33" r="3" fill="#dc2626" opacity="0.85"/>
<circle cx="269.69" cy="489.36" r="3" fill="#dc2626" opacity="0.85"/>
<circle cx="271.02" cy="542.57" r="3" fill="#dc2626" opacity="0.85"/>
<circle cx="231.19" cy="501.13" r="3" fill="#dc2626" opacity="0.85"/>
<circle cx="292.8" cy="505.11" r="3" fill="#dc2626" opacity="0.85"/>
<circle cx="241.33" cy="546.41" r="3" fill="#dc2626" opacity="0.85"/>
<circle cx="252.09" cy="476.99" r="3" fill="#dc2626" opacity="0.85"/>
<circle cx="293.36" cy="539.02" r="3" fill="#dc2626" opacity="0.85"/>
<circle cx="216.91" cy="520.1" r="3" fill="#dc2626" opacity="0.85"/>
<circle cx="289.82" cy="480.41" r="3" fill="#dc2626" opacity="0.85"/>
<circle cx="260.28" cy="524.13" r="3" fill="#dc2626" opacity="0.85"/>
<circle cx="252.04" cy="506.82" r="3" fill="#dc2626" opacity="0.85"/>
<circle cx="273.68" cy="515.79" r="3" fill="#dc2626" opacity="0.85"/>
<circle cx="247.61" cy="525.1" r="3" fill="#dc2626" opacity="0.85"/>
<circle cx="262.64" cy="496.92" r="3" fill="#dc2626" opacity="0.85"/>
<circle cx="271.55" cy="532.0" r="3" fill="#dc2626" opacity="0.85"/>
<circle cx="237.78" cy="509.74" r="3" fill="#dc2626" opacity="0.85"/>
<circle cx="281.93" cy="502.76" r="3" fill="#dc2626" opacity="0.85"/>
<circle cx="251.38" cy="541.01" r="3" fill="#dc2626" opacity="0.85"/>
<circle cx="247.85" cy="487.91" r="3" fill="#dc2626" opacity="0.85"/>
<circle cx="289.35" cy="527.67" r="3" fill="#dc2626" opacity="0.85"/>
<circle cx="227.64" cy="526.23" r="3" fill="#dc2626" opacity="0.85"/>
<circle cx="277.36" cy="482.85" r="3" fill="#dc2626" opacity="0.85"/>
<circle cx="269.47" cy="552.65" r="3" fill="#dc2626" opacity="0.85"/>
<circle cx="225.68" cy="492.38" r="3" fill="#dc2626" opacity="0.85"/>
<circle cx="302.84" cy="508.13" r="3" fill="#dc2626" opacity="0.85"/>
<circle cx="231.63" cy="550.8" r="3" fill="#dc2626" opacity="0.85"/>
<circle cx="259.35" cy="505.89" r="3" fill="#dc2626" opacity="0.85"/>
<circle cx="268.29" cy="522.85" r="3" fill="#dc2626" opacity="0.85"/>
<circle cx="246.3" cy="514.78" r="3" fill="#dc2626" opacity="0.85"/>
<circle cx="271.96" cy="504.39" r="3" fill="#dc2626" opacity="0.85"/>
<circle cx="258.11" cy="533.17" r="3" fill="#dc2626" opacity="0.85"/>
<circle cx="247.76" cy="498.49" r="3" fill="#dc2626" opacity="0.85"/>
<circle cx="282.42" cy="519.34" r="3" fill="#dc2626" opacity="0.85"/>
<circle cx="238.59" cy="528.14" r="3" fill="#dc2626" opacity="0.85"/>
<circle cx="267.54" cy="488.65" r="3" fill="#dc2626" opacity="0.85"/>
<circle cx="273.26" cy="541.56" r="3" fill="#dc2626" opacity="0.85"/>
<circle cx="230.15" cy="503.55" r="3" fill="#dc2626" opacity="0.85"/>
<circle cx="291.87" cy="502.44" r="3" fill="#dc2626" opacity="0.85"/>
<circle cx="243.98" cy="547.84" r="3" fill="#dc2626" opacity="0.85"/>
<circle cx="248.98" cy="477.77" r="3" fill="#dc2626" opacity="0.85"/>
<circle cx="295.23" cy="536.18" r="3" fill="#dc2626" opacity="0.85"/>
<circle cx="217.48" cy="523.63" r="3" fill="#dc2626" opacity="0.85"/>
<circle cx="286.87" cy="478.07" r="3" fill="#dc2626" opacity="0.85"/>
<circle cx="261.03" cy="524.08" r="3" fill="#dc2626" opacity="0.85"/>
<circle cx="251.39" cy="507.5" r="3" fill="#dc2626" opacity="0.85"/>
<circle cx="273.7" cy="514.66" r="3" fill="#dc2626" opacity="0.85"/>
<circle cx="248.49" cy="526.09" r="3" fill="#dc2626" opacity="0.85"/>
<circle cx="261.14" cy="496.77" r="3" fill="#dc2626" opacity="0.85"/>
<circle cx="272.91" cy="530.99" r="3" fill="#dc2626" opacity="0.85"/>
<circle cx="237.42" cy="511.59" r="3" fill="#dc2626" opacity="0.85"/>
<circle cx="280.85" cy="500.99" r="3" fill="#dc2626" opacity="0.85"/>
<circle cx="253.55" cy="541.64" r="3" fill="#dc2626" opacity="0.85"/>
<circle cx="245.66" cy="489.0" r="3" fill="#dc2626" opacity="0.85"/>
<circle cx="290.3" cy="525.21" r="3" fill="#dc2626" opacity="0.85"/>
<circle cx="228.67" cy="528.86" r="3" fill="#dc2626" opacity="0.85"/>
<text class="label" x="260" y="648" text-anchor="middle">③ High Variability · Low Bias</text>
<rect x="520" y="370" width="440" height="290" fill="#f9fafb" stroke="#e5e7eb" stroke-width="2" rx="16"/>
<circle cx="740" cy="515" r="25" fill="none" stroke="#1f2937" stroke-width="2"/>
<circle cx="740" cy="515" r="50" fill="none" stroke="#1f2937" stroke-width="2"/>
<circle cx="740" cy="515" r="76" fill="none" stroke="#1f2937" stroke-width="2"/>
<circle cx="740" cy="515" r="101" fill="none" stroke="#1f2937" stroke-width="2"/>
<line x1="639" y1="515" x2="841" y2="515" stroke="#1f2937" stroke-width="1" stroke-dasharray="4,4"/>
<line x1="740" y1="414" x2="740" y2="616" stroke="#1f2937" stroke-width="1" stroke-dasharray="4,4"/>
<circle cx="694.29" cy="558.1" r="3" fill="#dc2626" opacity="0.85"/>
<circle cx="697.71" cy="539.23" r="3" fill="#dc2626" opacity="0.85"/>
<circle cx="710.05" cy="559.15" r="3" fill="#dc2626" opacity="0.85"/>
<circle cx="683.44" cy="551.49" r="3" fill="#dc2626" opacity="0.85"/>
<circle cx="712.1" cy="537.39" r="3" fill="#dc2626" opacity="0.85"/>
<circle cx="698.85" cy="571.07" r="3" fill="#dc2626" opacity="0.85"/>
<circle cx="684.43" cy="533.28" r="3" fill="#dc2626" opacity="0.85"/>
<circle cx="724.36" cy="553.39" r="3" fill="#dc2626" opacity="0.85"/>
<circle cx="677.21" cy="566.61" r="3" fill="#dc2626" opacity="0.85"/>
<circle cx="705.36" cy="521.44" r="3" fill="#dc2626" opacity="0.85"/>
<circle cx="715.83" cy="577.95" r="3" fill="#dc2626" opacity="0.85"/>
<circle cx="666.57" cy="540.75" r="3" fill="#dc2626" opacity="0.85"/>
<circle cx="732.27" cy="534.56" r="3" fill="#dc2626" opacity="0.85"/>
<circle cx="685.11" cy="586.62" r="3" fill="#dc2626" opacity="0.85"/>
<circle cx="684.74" cy="512.12" r="3" fill="#dc2626" opacity="0.85"/>
<circle cx="738.19" cy="569.97" r="3" fill="#dc2626" opacity="0.85"/>
<circle cx="655.47" cy="563.02" r="3" fill="#dc2626" opacity="0.85"/>
<circle cx="704.19" cy="542.75" r="3" fill="#dc2626" opacity="0.85"/>
<circle cx="701.55" cy="561.74" r="3" fill="#dc2626" opacity="0.85"/>
<circle cx="688.41" cy="542.35" r="3" fill="#dc2626" opacity="0.85"/>
<circle cx="715.3" cy="548.9" r="3" fill="#dc2626" opacity="0.85"/>
<circle cx="687.25" cy="564.17" r="3" fill="#dc2626" opacity="0.85"/>
<circle cx="699.1" cy="529.97" r="3" fill="#dc2626" opacity="0.85"/>
<circle cx="715.07" cy="567.14" r="3" fill="#dc2626" opacity="0.85"/>
<circle cx="674.35" cy="548.69" r="3" fill="#dc2626" opacity="0.85"/>
<circle cx="720.91" cy="533.54" r="3" fill="#dc2626" opacity="0.85"/>
<circle cx="694.65" cy="579.83" r="3" fill="#dc2626" opacity="0.85"/>
<circle cx="681.85" cy="523.8" r="3" fill="#dc2626" opacity="0.85"/>
<circle cx="732.61" cy="558.94" r="3" fill="#dc2626" opacity="0.85"/>
<circle cx="667.22" cy="567.83" r="3" fill="#dc2626" opacity="0.85"/>
<circle cx="712.19" cy="513.87" r="3" fill="#dc2626" opacity="0.85"/>
<circle cx="715.63" cy="588.29" r="3" fill="#dc2626" opacity="0.85"/>
<circle cx="659.84" cy="532.7" r="3" fill="#dc2626" opacity="0.85"/>
<circle cx="742.78" cy="536.23" r="3" fill="#dc2626" opacity="0.85"/>
<circle cx="694.93" cy="558.49" r="3" fill="#dc2626" opacity="0.85"/>
<circle cx="696.79" cy="539.41" r="3" fill="#dc2626" opacity="0.85"/>
<circle cx="710.72" cy="558.24" r="3" fill="#dc2626" opacity="0.85"/>
<circle cx="683.58" cy="552.81" r="3" fill="#dc2626" opacity="0.85"/>
<circle cx="710.97" cy="536.39" r="3" fill="#dc2626" opacity="0.85"/>
<circle cx="700.54" cy="571.05" r="3" fill="#dc2626" opacity="0.85"/>
<circle cx="683.06" cy="534.57" r="3" fill="#dc2626" opacity="0.85"/>
<circle cx="724.51" cy="551.33" r="3" fill="#dc2626" opacity="0.85"/>
<circle cx="678.61" cy="568.38" r="3" fill="#dc2626" opacity="0.85"/>
<circle cx="702.94" cy="521.05" r="3" fill="#dc2626" opacity="0.85"/>
<circle cx="718.03" cy="576.51" r="3" fill="#dc2626" opacity="0.85"/>
<circle cx="665.88" cy="543.48" r="3" fill="#dc2626" opacity="0.85"/>
<circle cx="730.84" cy="531.91" r="3" fill="#dc2626" opacity="0.85"/>
<circle cx="688.13" cy="587.68" r="3" fill="#dc2626" opacity="0.85"/>
<circle cx="681.63" cy="513.46" r="3" fill="#dc2626" opacity="0.85"/>
<circle cx="739.66" cy="566.7" r="3" fill="#dc2626" opacity="0.85"/>
<circle cx="656.65" cy="566.6" r="3" fill="#dc2626" opacity="0.85"/>
<circle cx="703.53" cy="542.38" r="3" fill="#dc2626" opacity="0.85"/>
<circle cx="702.47" cy="561.52" r="3" fill="#dc2626" opacity="0.85"/>
<circle cx="687.77" cy="543.28" r="3" fill="#dc2626" opacity="0.85"/>
<circle cx="715.12" cy="547.59" r="3" fill="#dc2626" opacity="0.85"/>
<circle cx="688.42" cy="565.13" r="3" fill="#dc2626" opacity="0.85"/>
<circle cx="697.41" cy="530.07" r="3" fill="#dc2626" opacity="0.85"/>
<circle cx="716.38" cy="565.79" r="3" fill="#dc2626" opacity="0.85"/>
<circle cx="674.28" cy="550.76" r="3" fill="#dc2626" opacity="0.85"/>
<circle cx="719.43" cy="531.83" r="3" fill="#dc2626" opacity="0.85"/>
<circle cx="697.08" cy="580.12" r="3" fill="#dc2626" opacity="0.85"/>
<circle cx="679.71" cy="525.33" r="3" fill="#dc2626" opacity="0.85"/>
<circle cx="733.19" cy="556.18" r="3" fill="#dc2626" opacity="0.85"/>
<circle cx="668.75" cy="570.42" r="3" fill="#dc2626" opacity="0.85"/>
<circle cx="709.13" cy="512.94" r="3" fill="#dc2626" opacity="0.85"/>
<circle cx="718.69" cy="586.83" r="3" fill="#dc2626" opacity="0.85"/>
<circle cx="658.5" cy="536.02" r="3" fill="#dc2626" opacity="0.85"/>
<circle cx="741.46" cy="532.7" r="3" fill="#dc2626" opacity="0.85"/>
<circle cx="695.61" cy="558.83" r="3" fill="#dc2626" opacity="0.85"/>
<circle cx="695.88" cy="539.66" r="3" fill="#dc2626" opacity="0.85"/>
<circle cx="711.32" cy="557.28" r="3" fill="#dc2626" opacity="0.85"/>
<circle cx="683.82" cy="554.1" r="3" fill="#dc2626" opacity="0.85"/>
<circle cx="709.77" cy="535.48" r="3" fill="#dc2626" opacity="0.85"/>
<circle cx="702.23" cy="570.88" r="3" fill="#dc2626" opacity="0.85"/>
<circle cx="681.8" cy="535.97" r="3" fill="#dc2626" opacity="0.85"/>
<circle cx="724.49" cy="549.25" r="3" fill="#dc2626" opacity="0.85"/>
<circle cx="680.15" cy="570.04" r="3" fill="#dc2626" opacity="0.85"/>
<circle cx="700.5" cy="520.86" r="3" fill="#dc2626" opacity="0.85"/>
<circle cx="720.11" cy="574.88" r="3" fill="#dc2626" opacity="0.85"/>
<circle cx="665.41" cy="546.27" r="3" fill="#dc2626" opacity="0.85"/>
<text class="label" x="740" y="648" text-anchor="middle">④ High Variability · High Bias</text>
<text class="label" x="500.0" y="26.0" text-anchor="middle" style="font-size:22px; font-weight:bold;">Variability vs Bias — Target Analogy</text>
</svg>